<?xml version="1.0" standalone="no"?>
<!DOCTYPE svg PUBLIC "-//W3C//DTD SVG 20010904//EN"
 "http://www.w3.org/TR/2001/REC-SVG-20010904/DTD/svg10.dtd">
<svg version="1.0" xmlns="http://www.w3.org/2000/svg"
 width="256.000000pt" height="79.000000pt" viewBox="0 0 256.000000 79.000000"
 preserveAspectRatio="xMidYMid meet">

<g transform="translate(0.000000,79.000000) scale(0.100000,-0.100000)"
fill="#000000" stroke="none">
<path d="M1324 746 c-41 -18 -102 -92 -110 -131 -21 -112 98 -219 222 -200 89
13 154 84 154 168 0 60 -27 113 -77 147 -43 29 -141 38 -189 16z"/>
<path d="M853 616 c-89 -39 -89 -156 0 -191 46 -18 85 -13 116 16 20 19 20 22
6 49 -8 16 -15 49 -15 74 0 25 -3 47 -7 49 -23 14 -72 15 -100 3z"/>
<path d="M0 245 l0 -125 35 0 35 0 0 125 0 125 -35 0 -35 0 0 -125z"/>
<path d="M132 248 l3 -123 100 0 100 0 3 28 3 27 -65 0 c-64 0 -66 1 -66 25 0
24 3 25 61 25 57 0 60 1 57 23 -3 19 -10 22 -60 25 -50 3 -58 6 -58 22 0 18 7
20 65 20 63 0 65 1 65 25 l0 25 -105 0 -106 0 3 -122z"/>
<path d="M390 245 l0 -126 93 3 92 3 3 28 c3 27 3 27 -57 27 l-61 0 0 95 0 95
-35 0 -35 0 0 -125z"/>
<path d="M590 346 c0 -21 5 -25 38 -28 l37 -3 3 -97 3 -98 34 0 35 0 0 100 0
100 40 0 c36 0 40 3 40 25 l0 25 -115 0 -115 0 0 -24z"/>
<path d="M880 352 c-26 -21 -30 -66 -8 -88 8 -8 37 -23 64 -32 36 -13 50 -24
52 -40 3 -19 -1 -22 -28 -22 -24 0 -33 5 -37 21 -5 17 -11 20 -36 15 -40 -8
-42 -11 -29 -40 22 -49 132 -59 183 -17 28 23 30 75 3 101 -10 10 -41 25 -69
33 -29 8 -50 20 -50 28 0 20 44 24 51 5 4 -10 18 -16 40 -16 27 0 34 4 34 19
0 31 -38 51 -96 51 -35 0 -59 -6 -74 -18z"/>
<path d="M1192 324 c-25 -17 -30 -65 -8 -83 7 -6 31 -17 52 -24 27 -10 40 -21
42 -35 3 -17 -2 -22 -18 -22 -11 0 -23 7 -26 15 -7 17 -74 21 -74 5 0 -6 11
-22 25 -35 52 -53 165 -19 165 49 0 30 -37 61 -85 70 -20 4 -35 13 -35 21 0
22 20 28 39 11 22 -20 71 -21 71 -2 0 24 -41 46 -85 46 -22 0 -51 -7 -63 -16z"/>
<path d="M1415 316 c-72 -72 -23 -196 77 -196 31 0 46 7 70 31 25 25 29 33 17
40 -22 14 -46 11 -53 -7 -4 -10 -16 -14 -38 -12 -32 3 -33 4 -36 55 -3 48 -1
54 22 65 21 9 29 8 44 -5 41 -37 78 -10 41 29 -32 34 -110 34 -144 0z"/>
<path d="M1630 230 l0 -110 30 0 c29 0 30 2 30 45 0 45 0 45 34 45 34 0 35 -1
38 -42 3 -40 5 -43 36 -46 l32 -3 0 111 0 111 -32 -3 c-30 -3 -33 -6 -36 -40
-3 -36 -5 -38 -38 -38 -33 0 -34 1 -34 40 0 38 -2 40 -30 40 l-30 0 0 -110z"/>
<path d="M1919 325 c-59 -32 -64 -128 -8 -179 28 -25 37 -28 81 -24 58 6 86
29 97 79 17 78 -28 139 -103 139 -22 -1 -53 -7 -67 -15z m93 -42 c38 -34 16
-113 -31 -113 -33 0 -41 14 -41 70 0 54 36 76 72 43z"/>
<path d="M2159 312 c-26 -23 -31 -35 -31 -74 -1 -54 21 -94 58 -108 101 -39
188 43 154 145 -22 68 -123 89 -181 37z m102 -22 c14 -8 19 -21 19 -53 0 -24
-5 -48 -12 -55 -15 -15 -51 -15 -66 0 -17 17 -15 84 4 102 18 19 28 20 55 6z"/>
<path d="M2390 230 l0 -111 83 3 c76 3 82 5 85 25 3 20 -2 22 -50 25 l-53 3
-3 83 -3 82 -29 0 -30 0 0 -110z"/>
</g>
</svg>
